<svg id="svg" version="1.1" xmlns="http://www.w3.org/2000/svg" xmlns:xlink="http://www.w3.org/1999/xlink" width="400" height="400" viewBox="0, 0, 400,400"><g id="svgg"><path id="path0" d="M137.600 23.031 C 135.070 23.324,131.830 23.744,130.400 23.966 C 128.012 24.336,126.731 24.571,121.600 25.579 C 120.610 25.774,119.080 26.138,118.200 26.389 C 117.320 26.640,116.060 26.996,115.400 27.181 C 113.397 27.741,109.855 28.866,108.900 29.244 C 108.405 29.440,107.595 29.756,107.100 29.946 C 103.561 31.309,102.713 31.691,96.800 34.579 C 91.235 37.299,88.581 38.741,86.738 40.047 C 86.154 40.461,85.557 40.800,85.410 40.800 C 85.028 40.800,81.766 43.058,79.200 45.099 C 77.990 46.062,76.727 47.063,76.394 47.325 C 60.997 59.397,49.558 74.494,41.785 93.000 C 41.415 93.880,40.862 95.123,40.556 95.761 C 40.250 96.400,40.000 97.189,40.000 97.514 C 40.000 97.839,39.449 99.711,38.775 101.674 C 37.669 104.895,37.260 106.444,35.946 112.400 C 33.043 125.561,33.055 144.286,35.973 156.400 C 36.211 157.390,36.510 158.830,36.636 159.600 C 36.763 160.370,37.011 161.450,37.187 162.000 C 37.363 162.550,37.729 163.810,37.999 164.800 C 38.270 165.790,38.627 166.960,38.793 167.400 C 38.959 167.840,39.501 169.458,39.996 170.995 C 40.492 172.533,41.345 174.783,41.892 175.995 C 42.439 177.208,43.155 178.830,43.484 179.600 C 44.485 181.946,44.988 182.990,45.217 183.200 C 45.338 183.310,46.105 184.750,46.922 186.400 C 48.754 190.098,49.708 191.759,50.100 191.933 C 50.265 192.007,50.400 192.240,50.400 192.451 C 50.400 193.041,54.243 198.623,57.112 202.200 C 63.824 210.569,68.697 215.440,76.394 221.475 C 76.727 221.737,77.990 222.738,79.200 223.701 C 81.766 225.742,85.028 228.000,85.410 228.000 C 85.557 228.000,86.154 228.339,86.738 228.753 C 88.991 230.351,98.330 235.248,101.625 236.559 C 102.601 236.948,103.940 237.494,104.600 237.774 C 108.691 239.508,109.949 239.998,111.200 240.345 C 111.970 240.558,113.794 241.108,115.253 241.566 C 116.711 242.025,118.151 242.393,118.453 242.385 C 118.754 242.376,123.307 235.941,128.572 228.085 C 133.837 220.228,141.487 208.814,145.572 202.719 C 149.657 196.625,153.205 191.553,153.456 191.449 C 153.831 191.293,157.040 195.864,167.200 211.028 C 173.080 219.804,186.554 239.842,186.660 239.967 C 186.738 240.059,187.251 239.924,187.801 239.667 C 188.777 239.211,189.884 238.753,191.700 238.054 C 196.226 236.311,207.344 230.680,210.062 228.753 C 210.646 228.339,211.243 228.000,211.390 228.000 C 211.772 228.000,215.034 225.742,217.600 223.701 C 218.810 222.738,220.073 221.737,220.406 221.475 C 235.803 209.403,247.242 194.306,255.015 175.800 C 255.385 174.920,255.938 173.677,256.244 173.039 C 256.550 172.400,256.800 171.611,256.800 171.286 C 256.800 170.961,257.351 169.089,258.025 167.126 C 259.131 163.905,259.540 162.356,260.854 156.400 C 263.757 143.239,263.745 124.514,260.827 112.400 C 260.589 111.410,260.290 109.970,260.164 109.200 C 260.037 108.430,259.789 107.350,259.613 106.800 C 259.437 106.250,259.071 104.990,258.801 104.000 C 258.530 103.010,258.173 101.840,258.007 101.400 C 257.841 100.960,257.299 99.342,256.804 97.805 C 256.308 96.267,255.455 94.017,254.908 92.805 C 254.361 91.592,253.645 89.970,253.316 89.200 C 252.315 86.854,251.812 85.810,251.583 85.600 C 251.462 85.490,250.695 84.050,249.878 82.400 C 248.046 78.702,247.092 77.041,246.700 76.867 C 246.535 76.793,246.400 76.560,246.400 76.349 C 246.400 75.759,242.557 70.177,239.688 66.600 C 232.976 58.231,228.103 53.360,220.406 47.325 C 220.073 47.063,218.810 46.062,217.600 45.099 C 215.034 43.058,211.772 40.800,211.390 40.800 C 211.243 40.800,210.646 40.461,210.062 40.047 C 207.809 38.449,198.470 33.552,195.175 32.241 C 194.199 31.852,192.860 31.306,192.200 31.026 C 188.132 29.302,186.851 28.801,185.600 28.446 C 184.830 28.227,182.670 27.588,180.800 27.024 C 168.001 23.167,150.457 21.546,137.600 23.031 " stroke="none" fill="#04acf3" fill-rule="evenodd"></path><path id="path1" d="M152.719 192.300 C 152.386 192.685,147.736 199.570,142.384 207.600 C 137.032 215.630,131.957 223.190,131.107 224.400 C 130.256 225.610,124.914 233.530,119.235 242.000 C 113.556 250.470,107.609 259.290,106.020 261.600 C 104.430 263.910,98.851 272.190,93.622 280.000 C 88.392 287.810,82.812 296.090,81.221 298.400 C 79.631 300.710,73.691 309.530,68.022 318.000 C 62.353 326.470,56.413 335.290,54.823 337.600 C 51.978 341.731,34.828 367.323,34.249 368.300 C 34.012 368.700,57.946 368.800,153.376 368.800 C 236.193 368.800,272.800 368.672,272.800 368.382 C 272.800 367.954,256.231 343.007,255.343 342.098 C 255.073 341.821,254.738 341.236,254.599 340.798 C 254.460 340.359,254.190 340.000,254.000 340.000 C 253.810 340.000,253.547 339.662,253.416 339.249 C 253.284 338.836,252.733 337.981,252.189 337.349 C 251.646 336.717,251.201 335.990,251.200 335.733 C 251.200 335.477,251.050 335.207,250.868 335.133 C 250.685 335.060,245.788 327.890,239.987 319.200 C 234.185 310.510,229.217 303.174,228.945 302.898 C 228.674 302.621,228.338 302.036,228.199 301.598 C 228.060 301.159,227.790 300.800,227.600 300.800 C 227.410 300.800,227.147 300.462,227.016 300.049 C 226.884 299.636,226.333 298.781,225.789 298.149 C 225.246 297.517,224.801 296.790,224.800 296.533 C 224.800 296.277,224.650 296.007,224.468 295.933 C 224.285 295.860,219.388 288.690,213.587 280.000 C 207.785 271.310,202.805 263.962,202.519 263.671 C 202.234 263.381,202.000 263.004,202.000 262.834 C 202.000 262.664,201.550 262.001,201.000 261.362 C 200.451 260.723,200.001 259.975,200.000 259.700 C 200.000 259.425,199.850 259.200,199.668 259.200 C 199.485 259.200,199.080 258.708,198.768 258.106 C 198.455 257.504,197.977 256.739,197.703 256.406 C 197.158 255.740,183.069 234.792,165.494 208.513 C 154.030 191.370,153.788 191.063,152.719 192.300 " stroke="none" fill="#fb7c24" fill-rule="evenodd"></path><path id="path2" d="M263.074 137.700 C 262.853 143.591,261.889 151.704,260.854 156.400 C 259.540 162.356,259.131 163.905,258.025 167.126 C 257.351 169.089,256.800 170.961,256.800 171.286 C 256.800 171.611,256.550 172.400,256.244 173.039 C 255.938 173.677,255.385 174.920,255.015 175.800 C 252.435 181.943,247.368 191.397,243.866 196.600 C 239.580 202.970,227.289 216.787,225.900 216.798 C 225.735 216.799,225.600 230.120,225.600 246.400 L 225.600 276.000 301.200 276.000 L 376.800 276.000 376.800 203.600 L 376.800 131.200 320.059 131.200 L 263.318 131.200 263.074 137.700 " stroke="none" fill="#0cd444" fill-rule="evenodd"></path></g></svg>